<svg width="20" height="20" viewBox="0 0 20 20" fill="none" xmlns="http://www.w3.org/2000/svg">
<path d="M18.9485 10.0012H16.8433C16.5641 10.0012 16.2964 10.1065 16.099 10.294C15.9016 10.4815 15.7907 10.7359 15.7907 11.001C15.7907 11.2662 15.9016 11.5206 16.099 11.7081C16.2964 11.8956 16.5641 12.0009 16.8433 12.0009V14.0007H15.5949C15.72 13.6805 15.7858 13.3423 15.7896 13.0008C15.7896 12.3405 15.5602 11.6987 15.1371 11.1748C14.7139 10.651 14.1206 10.2744 13.4492 10.1035C12.7777 9.93261 12.0657 9.97693 11.4235 10.2296C10.7813 10.4823 10.2448 10.9292 9.89723 11.501C9.82703 11.6147 9.7812 11.7406 9.7624 11.8712C9.74359 12.0019 9.75218 12.1348 9.78766 12.2622C9.82314 12.3897 9.88482 12.5093 9.96914 12.614C10.0535 12.7188 10.1588 12.8067 10.279 12.8726C10.3992 12.9385 10.532 12.9812 10.6696 12.9982C10.8073 13.0152 10.9471 13.0062 11.0811 12.9716C11.215 12.9371 11.3405 12.8777 11.4502 12.7969C11.5599 12.7161 11.6517 12.6155 11.7203 12.5009C11.8127 12.3489 11.9456 12.2227 12.1056 12.1349C12.2656 12.0471 12.4471 12.0009 12.6319 12.0009C12.911 12.0009 13.1788 12.1063 13.3762 12.2938C13.5736 12.4813 13.6845 12.7356 13.6845 13.0008C13.6845 13.266 13.5736 13.5203 13.3762 13.7078C13.1788 13.8954 12.911 14.0007 12.6319 14.0007C12.3527 14.0007 12.085 14.106 11.8876 14.2936C11.6902 14.4811 11.5793 14.7354 11.5793 15.0006C11.5793 15.2658 11.6902 15.5201 11.8876 15.7076C12.085 15.8951 12.3527 16.0005 12.6319 16.0005C12.911 16.0005 13.1788 16.1058 13.3762 16.2933C13.5736 16.4808 13.6845 16.7352 13.6845 17.0003C13.6845 17.2655 13.5736 17.5199 13.3762 17.7074C13.1788 17.8949 12.911 18.0002 12.6319 18.0002C12.4471 18.0002 12.2656 17.954 12.1056 17.8663C11.9456 17.7785 11.8127 17.6523 11.7203 17.5003C11.6517 17.3857 11.5599 17.285 11.4502 17.2043C11.3405 17.1235 11.215 17.0641 11.0811 17.0295C10.9471 16.995 10.8073 16.9859 10.6696 17.0029C10.532 17.0199 10.3992 17.0626 10.279 17.1286C10.1588 17.1945 10.0535 17.2824 9.96914 17.3871C9.88482 17.4919 9.82314 17.6114 9.78766 17.7389C9.75218 17.8664 9.74359 17.9993 9.7624 18.1299C9.7812 18.2606 9.82703 18.3864 9.89723 18.5002C10.2448 19.072 10.7813 19.5189 11.4235 19.7716C12.0657 20.0242 12.7777 20.0686 13.4492 19.8977C14.1206 19.7268 14.7139 19.3502 15.1371 18.8263C15.5602 18.3025 15.7896 17.6607 15.7896 17.0003C15.7858 16.6589 15.72 16.3206 15.5949 16.0005H16.8422V19.0001C16.8422 19.2653 16.9531 19.5196 17.1505 19.7071C17.3479 19.8947 17.6157 20 17.8948 20C18.174 20 18.4417 19.8947 18.6391 19.7071C18.8365 19.5196 18.9474 19.2653 18.9474 19.0001V12.0009C19.2266 12.0009 19.4943 11.8956 19.6917 11.7081C19.8891 11.5206 20 11.2662 20 11.001C20 10.7359 19.8891 10.4815 19.6917 10.294C19.4943 10.1065 19.2276 10.0012 18.9485 10.0012ZM6.34895 9.24425C6.38173 9.37243 6.44089 9.49318 6.52301 9.59955C6.60513 9.70591 6.7086 9.79579 6.82745 9.86401C6.9463 9.93222 7.07819 9.97742 7.21551 9.99701C7.35283 10.0166 7.49288 10.0102 7.62757 9.97812C7.76227 9.94606 7.88896 9.88901 8.00035 9.81024C8.11173 9.73147 8.20561 9.63254 8.27657 9.51916C8.34753 9.40578 8.39417 9.28017 8.4138 9.14959C8.43344 9.01901 8.42568 8.88603 8.39098 8.75831L6.54157 1.72912C6.4122 1.23536 6.11266 0.796911 5.69063 0.483567C5.26861 0.170222 4.74836 0 4.21272 0C3.67707 0 3.15682 0.170222 2.7348 0.483567C2.31277 0.796911 2.01323 1.23536 1.88386 1.72912L0.0334045 8.75831C-0.0013006 8.88603 -0.009059 9.01901 0.0105764 9.14959C0.0302118 9.28017 0.0768529 9.40578 0.147813 9.51916C0.218772 9.63254 0.312648 9.73147 0.424032 9.81024C0.535416 9.88901 0.662106 9.94606 0.796805 9.97812C0.931503 10.0102 1.07155 10.0166 1.20887 9.99701C1.34619 9.97742 1.47808 9.93222 1.59693 9.86401C1.71578 9.79579 1.81925 9.70591 1.90137 9.59955C1.98349 9.49318 2.04265 9.37243 2.07543 9.24425L2.66383 7.00151H5.75845L6.34895 9.24425ZM3.19118 5.00174L3.92483 2.21507C3.94696 2.15968 3.9863 2.11201 4.03762 2.07836C4.08895 2.04472 4.14983 2.0267 4.21219 2.0267C4.27455 2.0267 4.33543 2.04472 4.38676 2.07836C4.43808 2.11201 4.47742 2.15968 4.49955 2.21507L5.2332 5.00174H3.19118ZM11.5803 5.00174H12.6329C12.912 5.00201 13.1796 5.10744 13.3769 5.29489C13.5742 5.48235 13.6852 5.73652 13.6855 6.00163V7.00151C13.6855 7.2667 13.7964 7.52102 13.9938 7.70853C14.1912 7.89605 14.4589 8.00139 14.7381 8.00139C15.0173 8.00139 15.285 7.89605 15.4824 7.70853C15.6798 7.52102 15.7907 7.2667 15.7907 7.00151V6.00163C15.7899 5.20631 15.4569 4.4438 14.8649 3.88143C14.2729 3.31906 13.4702 3.00277 12.6329 3.00198H11.5803C11.3012 3.00198 11.0334 3.10732 10.836 3.29483C10.6386 3.48235 10.5277 3.73667 10.5277 4.00186C10.5277 4.26704 10.6386 4.52137 10.836 4.70888C11.0334 4.8964 11.3012 5.00174 11.5803 5.00174ZM7.36996 14.0007H6.31737C6.03829 14.0004 5.77072 13.895 5.57339 13.7075C5.37605 13.5201 5.26506 13.2659 5.26478 13.0008V12.0009C5.26478 11.7357 5.15388 11.4814 4.95648 11.2939C4.75909 11.1064 4.49135 11.001 4.21219 11.001C3.93303 11.001 3.6653 11.1064 3.4679 11.2939C3.2705 11.4814 3.1596 11.7357 3.1596 12.0009V13.0008C3.16044 13.7961 3.4934 14.5586 4.08541 15.121C4.67743 15.6834 5.48013 15.9997 6.31737 16.0005H7.36996C7.64913 16.0005 7.91686 15.8951 8.11426 15.7076C8.31166 15.5201 8.42255 15.2658 8.42255 15.0006C8.42255 14.7354 8.31166 14.4811 8.11426 14.2936C7.91686 14.106 7.64913 14.0007 7.36996 14.0007Z" fill="black"/>
</svg>
